{"title":"Ice Age - A Mammoth Christmas[2011][Eng][DvDRip]XviD - {RedDrago","uid":6914405,"size":428411752,"categoryP":"video","categoryS":"movies","magnet":"?xt=urn:btih:5d64f78b6f2b5dea650d6ef7ef3114ca41ba17a2&amp;dn=Ice+Age+-+A+Mammoth+Christmas%5B2011%5D%5BEng%5D%5BDvDRip%5DXviD+-+%7BRedDrago&amp;tr=udp%3A%2F%2Ftracker.openbittorrent.com%3A80&amp;tr=udp%3A%2F%2Fopen.demonii.com%3A1337&amp;tr=udp%3A%2F%2Ftracker.coppersurfer.tk%3A6969&amp;tr=udp%3A%2F%2Fexodus.desync.com%3A6969","seeders":0,"leechers":1,"uploader":"RedDr4gon","files":5,"time":1324975704,"description":" \n    Video. \n \nID                               : 1\nFormat                           : MPEG-4 Visual\nFormat profile                   : Simple@L1\nFormat settings, BVOP            : No\nFormat settings, QPel            : No\nFormat settings, GMC             : No warppoints\nFormat settings, Matrix          : Default (H.263)\nCodec ID                         : 20\nDuration                         : 25mn 29s\nBit rate mode                    : Variable\nBit rate                         : 2 077 Kbps\nMaximum bit rate                 : 7 522 Kbps\nWidth                            : 640 pixels\nHeight                           : 352 pixels\nDisplay aspect ratio             : 16:9\nFrame rate mode                  : Variable\nFrame rate                       : 23.976 fps\nMinimum frame rate               : 23.974 fps\nMaximum frame rate               : 23.981 fps\nColor space                      : YUV\nChroma subsampling               : 4:2:0\nBit depth                        : 8 bits\nScan type                        : Progressive\nBits/(Pixel*Frame)               : 0.385\nStream size                      : 379 MiB (93%)\nWriting library                  : Lavc52.94.3\nEncoded date                     : UTC 2011-12-27 04:23:08\nTagged date                      : UTC 2011-12-27 04:24:52\n\n \n    Audio.    \n \nID                               : 2\nFormat                           : AAC\nFormat/Info                      : Advanced Audio Codec\nFormat version                   : Version 4\nFormat profile                   : LC\nFormat settings, SBR             : No\nCodec ID                         : 40\nDuration                         : 25mn 29s\nBit rate mode                    : Variable\nBit rate                         : 160 Kbps\nMaximum bit rate                 : 287 Kbps\nChannel(s)                       : 2 channels\nChannel positions                : Front: L R\nSampling rate                    : 48.0 KHz\nStream size                      : 29.2 MiB (7%)\nEncoded date                     : UTC 2011-12-27 04:23:08\nTagged date                      : UTC 2011-12-27 04:24:52\n \n \n    FORUMS. \n \n \n   Please Join my Forums :\n\n\n  &lt;a href=&quot; http://discussionforums.freeforhosting.com/&quot; rel=&quot;nofollow&quot; target=&quot;_NEW&quot;&gt; http://discussionforums.freeforhosting.com/&lt;/a&gt;    --&gt; Discurssion Forum.","torrent":{"xt":"urn:btih:5d64f78b6f2b5dea650d6ef7ef3114ca41ba17a2","amp;dn":"Ice+Age+-+A+Mammoth+Christmas%5B2011%5D%5BEng%5D%5BDvDRip%5DXviD+-+%7BRedDrago","amp;tr":["udp%3A%2F%2Ftracker.openbittorrent.com%3A80","udp%3A%2F%2Fopen.demonii.com%3A1337","udp%3A%2F%2Ftracker.coppersurfer.tk%3A6969","udp%3A%2F%2Fexodus.desync.com%3A6969"],"infoHash":"5d64f78b6f2b5dea650d6ef7ef3114ca41ba17a2","infoHashBuffer":{"type":"Buffer","data":[93,100,247,139,111,43,93,234,101,13,110,247,239,49,20,202,65,186,23,162]},"announce":[],"urlList":[]}}